# xmcd
#
# Track frame offsets: 
#        150
#        15482
#        32684
#        49350
#        66173
#        83779
#        99088
#        114058
#        131225
#        147748
#
# Disc length: 2170 seconds
#
# Revision: 0
# Processed by: cddbd v1.5.2PL0 Copyright (c) Steve Scherf et al.
# Submitted via: ExactAudioCopy v0.99pb4
#
DISCID=8208780a
DTITLE=เทิด ทูลทอง - ปัดฝุ่น รุ่นพิเศษ 15+1
DYEAR=2009
DGENRE=Country
TTITLE0=เทพีเชียงใหม่
TTITLE1=โปรดเถิดดวงใจ
TTITLE2=เหนือดวงชีวา
TTITLE3=จูปมัดจำ
TTITLE4=รอยรักในอารมณ์
TTITLE5=เทพธิดาหลงฟ้า
TTITLE6=จอมขวัญใจ
TTITLE7=ปรารถนา
TTITLE8=ไพรระกำ
TTITLE9=อ่านหัวใจ
EXTD=
EXTT0=
EXTT1=
EXTT2=
EXTT3=
EXTT4=
EXTT5=
EXTT6=
EXTT7=
EXTT8=
EXTT9=
PLAYORDER=
